<?xml version="1.0" standalone="no"?>
<!DOCTYPE svg PUBLIC "-//W3C//DTD SVG 20010904//EN"
 "http://www.w3.org/TR/2001/REC-SVG-20010904/DTD/svg10.dtd">
<svg version="1.0" xmlns="http://www.w3.org/2000/svg"
 width="216.000000pt" height="61.000000pt" viewBox="0 0 216.000000 61.000000"
 preserveAspectRatio="xMidYMid meet">
<metadata>
Created by potrace 1.10, written by Peter Selinger 2001-2011
</metadata>
<g transform="translate(0.000000,61.000000) scale(0.100000,-0.100000)"
fill="#000000" stroke="none">
<path d="M116 601 c-12 -19 -106 -282 -106 -296 0 -20 99 -287 110 -299 27
-27 17 17 -31 146 -29 79 -52 150 -51 158 1 8 24 75 52 149 27 74 50 138 50
143 0 11 -17 10 -24 -1z"/>
<path d="M200 607 c0 -1 -22 -65 -50 -142 -27 -77 -50 -150 -50 -162 0 -13 11
-51 24 -85 13 -35 36 -98 51 -140 16 -47 33 -78 41 -78 8 0 14 1 14 3 0 1 -24
69 -54 152 l-53 150 48 135 c26 74 50 143 54 153 5 12 2 17 -9 17 -9 0 -16 -1
-16 -3z"/>
<path d="M315 601 c-51 -11 -55 -32 -55 -296 0 -268 4 -285 59 -296 l33 -7
-31 28 -31 29 0 250 0 250 30 16 c17 9 30 20 30 25 0 6 -1 9 -2 9 -2 -1 -16
-4 -33 -8z"/>
<path d="M508 582 c30 -26 32 -31 32 -94 0 -66 -1 -68 -25 -68 -22 0 -25 4
-25 38 0 25 -7 45 -18 55 -26 24 -87 22 -112 -3 -19 -19 -20 -33 -20 -203 0
-218 3 -227 80 -227 56 0 70 15 70 74 0 32 3 36 25 36 24 0 25 -2 25 -70 0
-65 -2 -73 -27 -94 l-27 -23 32 5 c18 2 36 9 40 16 4 6 9 53 12 104 l5 92 -57
0 -58 0 0 -55 0 -55 -45 0 -45 0 0 195 0 195 45 0 45 0 0 -55 0 -55 58 0 57 0
-5 95 c-3 52 -9 98 -15 103 -5 5 -26 12 -45 16 l-35 6 33 -28z"/>
<path d="M620 305 c0 -264 2 -305 15 -305 13 0 15 41 15 305 0 264 -2 305 -15
305 -13 0 -15 -41 -15 -305z"/>
<path d="M700 305 c0 -264 2 -305 15 -305 13 0 15 41 15 305 0 264 -2 305 -15
305 -13 0 -15 -41 -15 -305z"/>
<path d="M830 603 c-50 -10 -50 -8 -50 -298 0 -294 -1 -288 55 -298 l30 -5
-27 22 -28 22 0 260 0 261 25 11 c14 6 25 16 25 22 0 5 -1 9 -2 9 -2 -1 -14
-4 -28 -6z"/>
<path d="M1000 599 c0 -5 11 -15 25 -21 l25 -11 0 -261 0 -260 -27 -22 -28
-22 35 7 c57 11 60 27 60 296 0 267 -4 285 -58 296 -17 3 -32 2 -32 -2z"/>
<path d="M1130 305 c0 -264 2 -305 15 -305 13 0 15 41 15 305 0 264 -2 305
-15 305 -13 0 -15 -41 -15 -305z"/>
<path d="M1210 492 c0 -144 9 -162 75 -162 66 0 75 18 75 162 0 98 -3 118 -15
118 -13 0 -15 -21 -15 -125 l0 -125 -45 0 -45 0 0 125 c0 104 -2 125 -15 125
-12 0 -15 -20 -15 -118z"/>
<path d="M1410 305 c0 -264 2 -305 15 -305 13 0 15 41 15 305 0 264 -2 305
-15 305 -13 0 -15 -41 -15 -305z"/>
<path d="M1720 313 c-34 -164 -65 -302 -67 -306 -3 -5 3 -7 13 -5 15 3 28 49
80 293 35 160 63 296 63 303 1 6 -5 12 -12 12 -10 0 -32 -88 -77 -297z"/>
<path d="M1867 588 c-7 -25 -63 -288 -71 -328 -2 -14 -14 -67 -25 -117 -23
-102 -26 -143 -11 -143 11 0 6 -21 75 305 30 143 57 270 60 283 4 15 1 22 -9
22 -7 0 -16 -10 -19 -22z"/>
<path d="M1930 607 c0 -2 23 -68 52 -148 28 -79 51 -148 51 -154 0 -5 -23 -75
-51 -154 -29 -80 -52 -146 -52 -148 0 -2 6 -3 13 -3 12 0 118 277 117 307 0 6
-23 77 -51 157 -33 94 -56 146 -65 146 -8 0 -14 -1 -14 -3z"/>
<path d="M2066 465 c30 -80 54 -151 54 -158 0 -7 -23 -76 -51 -155 -47 -128
-56 -173 -30 -146 13 13 111 282 110 302 0 10 -24 80 -52 157 -35 92 -58 141
-69 143 -12 2 -4 -29 38 -143z"/>
<path d="M876 514 c-14 -13 -16 -47 -16 -213 0 -140 3 -200 12 -209 16 -16
100 -16 116 0 9 9 12 70 12 215 0 190 -1 203 -19 213 -29 15 -87 12 -105 -6z
m104 -209 l0 -195 -47 0 -48 0 0 195 0 195 48 0 47 0 0 -195z"/>
<path d="M1227 262 c-24 -26 -25 -262 -2 -262 13 0 15 21 15 125 l0 125 45 0
45 0 0 -125 c0 -104 2 -125 15 -125 13 0 15 20 15 123 0 107 -2 126 -18 140
-26 23 -94 22 -115 -1z"/>
</g>
</svg>
